PathFileType	4	(X/Y/Z)	C:\Users\WrightLab\Desktop\Jo\P4V130.trc
DataRate	CameraRate	NumFrames	NumMarkers	Units	OrigDataRate	OrigDataStartFrame	OrigNumFrames
100.00	100.00	       22	19	mm	100.00	169	       672
Frame#	Time	Headset_Front			Headset_Back			Headset_Left			Headset_Right			Left_Shoulder			Right_Shoulder			Sternum			C7			Left Elbow			Right Elbow			Left Wrist			Right Wrist			Left ASIS			Right ASIS			S2			Left Knee			Right Knee			Left Ankle			Right Ankle			
		X1	Y1	Z1	X2	Y2	Z2	X3	Y3	Z3	X4	Y4	Z4	X5	Y5	Z5	X6	Y6	Z6	X7	Y7	Z7	X8	Y8	Z8	X9	Y9	Z9	X10	Y10	Z10	X11	Y11	Z11	X12	Y12	Z12	X13	Y13	Z13	X14	Y14	Z14	X15	Y15	Z15	X16	Y16	Z16	X17	Y17	Z17	X18	Y18	Z18	X19	Y19	Z19	

169	1.680	61.13298	1137.88525	-1157.46436																												-71.65572	882.03656	-1031.86426	-497.33768	809.59143	-1388.36304	-53.21704	962.24335	-1209.49646	-369.74435	988.57257	-1298.57031				-13.16568	493.14545	-1346.05823	-463.96796	546.67480	-1210.53333							
170	1.690	51.96978	1135.97815	-1150.08337																												-78.83855	880.21057	-1022.95685	-504.01355	808.35101	-1388.57471	-58.47106	960.25787	-1202.87463	-376.45810	987.33307	-1292.06604				-19.05055	490.90881	-1342.93396	-468.99289	545.09332	-1204.97839							
171	1.700	45.52494	1134.81616	-1146.03882																												-86.41171	880.60767	-1015.18921	-508.82227	809.22272	-1377.42285	-66.87775	959.05688	-1197.52844	-383.41263	986.53534	-1286.05969				-22.22733	490.08563	-1339.79077	-473.82483	543.05328	-1199.11035							
172	1.710	38.39187	1134.15344	-1132.58362																												-91.86258	877.93903	-1007.70697	-514.68677	808.14508	-1375.03748	-73.24673	958.91064	-1189.82751	-389.24667	985.36395	-1279.60962				-27.03394	492.15070	-1327.58923	-478.96609	540.71106	-1192.55920							
173	1.720	31.29885	1132.42676	-1129.41809																												-98.64653	876.46704	-1000.55261	-518.91962	806.66840	-1370.28662	-81.42953	957.65131	-1183.47339	-396.40952	985.27155	-1273.46252				-32.29240	491.82434	-1325.19348	-484.32745	539.57587	-1186.55420							
174	1.730	26.68464	1133.99097	-1114.92969																												-104.07556	875.37012	-992.14960	-526.09552	807.24573	-1365.47021	-87.37162	957.52234	-1174.81909	-403.42621	985.83270	-1266.55518				-37.97578	490.80615	-1318.74829	-490.60696	538.66992	-1181.01868							
175	1.740	19.11034	1134.00964	-1107.93811																												-110.77227	874.61115	-985.64099	-530.20245	806.15393	-1360.39832	-96.17815	956.43622	-1166.58887	-411.12122	985.99066	-1261.17554				-43.35735	493.19247	-1305.53455	-497.33545	538.87134	-1176.44434							
176	1.750	11.77893	1134.16797	-1099.47156																												-116.78368	874.01459	-977.98737	-537.25220	806.10858	-1354.79065	-104.94749	956.12140	-1160.17151	-418.09479	986.84650	-1255.31433				-49.25882	493.97885	-1300.80151	-505.02502	538.96252	-1171.40601							
177	1.760	4.26060	1134.09265	-1091.74756																												-122.65759	871.83386	-971.35535	-542.22968	806.41101	-1349.38220	-112.38368	956.90668	-1150.97876	-425.06644	986.75629	-1249.75818				-55.36671	492.04791	-1293.71887	-512.12933	538.87372	-1166.70020							
178	1.770	-2.91645	1134.06274	-1083.57178																												-129.25526	872.01074	-964.51782	-547.62830	806.91467	-1342.98425	-121.90723	956.58295	-1142.46936	-433.78018	988.34009	-1244.21667				-61.14862	495.66510	-1275.50781	-520.01666	539.32361	-1161.71875							
179	1.780	-13.34597	1134.14526	-1080.33472																												-134.15269	869.99548	-957.71289	-554.55060	807.79700	-1336.26819	-130.85693	956.81915	-1133.05725	-442.77530	990.33990	-1238.84363				-68.40008	496.10376	-1262.52893	-528.99298	540.05646	-1158.47620							
180	1.790	-18.78780	1135.77515	-1070.24866																												-140.50320	869.96948	-951.36682	-560.42633	808.40686	-1329.71936	-139.88126	958.13739	-1125.18616	-450.85178	990.42181	-1233.23218				-77.31763	495.18939	-1251.03113	-535.14050	540.20160	-1154.92786							
181	1.800	-26.17957	1136.85706	-1063.57776																												-145.88803	869.54633	-944.45520	-565.53693	809.20831	-1322.30664	-148.81699	958.88531	-1117.22363	-458.66495	990.94849	-1227.33679				-84.27371	494.19489	-1236.88867	-541.27338	539.15424	-1152.52368							
182	1.810	-37.01062	1136.90332	-1059.54675																			-278.95233	1504.16760	-1268.98401							-151.02232	869.96350	-939.25745	-571.35114	810.18738	-1314.94287	-158.31686	958.60461	-1107.19690	-467.16812	992.31604	-1222.84668				-92.89282	492.82843	-1220.34595	-547.09155	537.51575	-1150.71460							
183	1.820	-44.76725	1138.12244	-1048.06250													-438.44174	1462.58081	-1285.27222				-285.64722	1505.21558	-1262.01855							-156.68602	868.68219	-932.22559	-578.16736	812.10242	-1306.92676	-168.55064	959.55780	-1102.25281	-475.53241	994.02429	-1216.88135				-102.19775	491.96686	-1203.20691	-550.69489	536.42291	-1148.95618							
184	1.830	-49.05693	1139.83362	-1043.17859													-445.12628	1464.46765	-1279.14294				-292.29999	1506.80981	-1256.06372							-161.77707	869.46533	-926.56555	-584.20502	813.31598	-1298.32690	-175.21115	960.41205	-1092.22815	-483.36194	995.01776	-1211.69165				-111.03876	490.70059	-1185.33057	-553.55554	534.29596	-1146.65637							
185	1.840	-58.98751	1139.06348	-1041.18237													-451.64771	1466.33972	-1273.24414				-298.82443	1508.17480	-1249.15112							-166.80899	868.98285	-920.40283	-591.34711	815.90594	-1290.27014	-184.59831	961.49182	-1083.52112	-489.64734	996.39221	-1207.09131				-122.85310	488.39856	-1168.09949	-555.61121	533.13940	-1145.71069							
186	1.850	-66.35959	1141.95532	-1029.30151													-458.23676	1468.19629	-1266.83240				-305.50226	1509.36230	-1242.62354							-171.62347	868.70209	-914.37164	-597.81598	817.18536	-1280.81348	-192.58974	962.65448	-1077.16882	-497.93866	997.76703	-1201.76355				-132.03705	487.16760	-1147.80188	-558.81726	532.85913	-1143.95667							
187	1.860	-73.21288	1141.62488	-1028.99463													-464.76706	1469.75757	-1259.76868				-311.91940	1510.97974	-1235.71265							-176.79726	869.40906	-908.05115	-604.13519	819.01935	-1271.71191	-199.55717	963.49286	-1069.50391	-505.20197	999.41943	-1196.91248				-143.99046	484.94504	-1129.75208	-562.48236	532.74615	-1141.59460							
188	1.870	-79.96471	1143.65710	-1017.78058										-479.96243	1654.77417	-1090.42151	-471.11673	1471.36169	-1253.09302				-318.33777	1512.38416	-1229.29224							-182.55345	868.44281	-903.00189	-611.61426	821.58008	-1261.76770	-207.29305	964.14722	-1062.80334	-510.82086	1000.77087	-1191.89319				-154.18008	484.34241	-1111.37317	-566.19080	533.29102	-1139.83044							
189	1.880	-85.11124	1145.79492	-1010.36273	-345.36194	1729.12048	-1256.06262							-485.88361	1656.39880	-1083.51257	-477.32913	1473.46875	-1246.82874				-324.55490	1513.91321	-1222.74927				-566.73792	1115.60205	-1336.06128	-187.08217	869.57178	-897.31287	-617.80267	823.42310	-1252.25977	-214.33264	965.26849	-1055.62195	-517.23712	1001.67883	-1187.15332				-166.22096	484.93747	-1091.67871	-570.59009	533.65759	-1138.56067							
190	1.890	-93.35306	1145.66321	-1006.22455	-351.03171	1730.36597	-1249.67188							-491.56870	1658.27942	-1076.66467	-483.48615	1474.79089	-1239.89587				-330.73685	1515.46313	-1215.65063				-574.79498	1117.30713	-1328.50537	-193.03740	870.02411	-891.98682	-625.49390	826.50946	-1242.17334	-221.63664	965.84143	-1048.38379	-522.17615	1002.99609	-1182.23840				-176.57230	485.20450	-1073.37061	-572.75842	533.27014	-1137.42456							
